<?xml version="1.0" standalone="no"?>
<!DOCTYPE svg PUBLIC "-//W3C//DTD SVG 20010904//EN"
 "http://www.w3.org/TR/2001/REC-SVG-20010904/DTD/svg10.dtd">
<svg version="1.0" xmlns="http://www.w3.org/2000/svg"
 width="700.000000pt" height="700.000000pt" viewBox="0 0 700.000000 700.000000"
 preserveAspectRatio="xMidYMid meet">
<metadata>
Created by potrace 1.14, written by Peter Selinger 2001-2017
</metadata>
<g transform="translate(0.000000,700.000000) scale(0.100000,-0.100000)"
fill="#000000" stroke="none">
<path d="M3417 6344 c-1 -1 -52 -4 -113 -8 -61 -4 -121 -9 -135 -11 -13 -2
-40 -6 -59 -9 -45 -6 -134 -20 -140 -21 -3 -1 -23 -5 -45 -9 -82 -16 -233 -58
-345 -96 -522 -175 -1003 -524 -1347 -975 -145 -191 -296 -458 -381 -675 -51
-132 -120 -365 -138 -465 -19 -114 -33 -198 -38 -235 -32 -261 -22 -617 24
-840 6 -25 12 -57 15 -73 14 -76 16 -85 60 -242 49 -178 184 -482 288 -650
438 -705 1095 -1166 1888 -1325 57 -11 126 -23 154 -26 27 -3 60 -7 73 -9 142
-22 525 -23 641 0 11 2 46 6 78 10 32 3 67 8 78 10 11 3 31 7 45 9 344 60 738
219 1041 421 70 46 133 90 141 97 7 7 31 26 53 43 302 225 621 619 802 990
104 214 198 497 237 715 3 19 8 44 10 56 2 12 7 45 11 74 4 29 8 61 10 70 16
82 23 418 11 545 -15 162 -20 195 -51 360 -51 272 -199 650 -348 890 -200 321
-437 585 -722 802 -174 132 -401 265 -595 348 -74 32 -295 110 -339 120 -9 2
-32 9 -51 14 -50 16 -265 59 -329 66 -30 4 -61 8 -70 10 -52 10 -405 26 -414
19z m-134 -779 c2 -319 2 -326 -18 -330 -11 -2 -60 -12 -110 -21 -218 -40
-482 -155 -669 -290 l-58 -43 -234 232 -233 232 37 33 c74 66 310 215 447 282
189 92 428 173 580 197 17 2 46 8 65 13 19 5 67 12 105 16 39 3 72 8 74 10 2
2 6 2 8 0 3 -2 5 -151 6 -331z m597 310 c25 -3 65 -11 90 -17 25 -5 54 -11 65
-14 300 -60 695 -248 953 -453 l53 -42 -236 -236 -236 -235 -22 18 c-12 11
-24 21 -27 24 -7 7 -88 60 -125 82 -185 110 -437 202 -609 223 -31 4 -59 11
-62 16 -4 7 -7 316 -5 590 l1 65 58 -7 c31 -4 77 -10 102 -14z m-1990 -1073
l228 -228 -58 -85 c-106 -154 -162 -267 -223 -450 -31 -92 -65 -238 -70 -299
-1 -17 -9 -20 -47 -21 -261 -2 -601 0 -610 6 -5 3 -9 9 -6 13 2 4 7 32 10 62
21 184 82 420 159 615 74 186 338 615 380 615 5 0 112 -103 237 -228z m3503
184 c20 -25 37 -49 37 -55 0 -5 4 -11 9 -13 19 -7 155 -230 216 -353 119 -241
208 -535 230 -760 4 -38 9 -73 12 -77 5 -9 9 -9 -361 -9 -159 0 -292 4 -296 8
-4 4 -13 42 -19 83 -24 153 -110 398 -184 525 -54 93 -76 128 -113 179 l-43
58 227 229 c125 125 232 228 237 228 6 1 27 -19 48 -43z m-3639 -1709 c8 -3
17 -30 21 -63 27 -219 153 -524 301 -728 l43 -59 -232 -233 -232 -233 -33 37
c-67 76 -222 322 -286 454 -36 75 -66 142 -66 150 0 8 -4 18 -9 24 -24 25
-118 365 -135 489 -3 22 -10 68 -14 102 l-9 62 41 3 c66 5 596 0 610 -5z
m4087 3 l56 0 -9 -62 c-15 -118 -19 -143 -28 -183 -5 -22 -11 -55 -15 -72 -8
-47 -72 -258 -102 -333 -33 -86 -144 -310 -191 -386 -46 -75 -141 -208 -179
-251 l-28 -32 -232 233 -231 232 65 95 c141 205 252 490 285 729 4 34 18 35
308 33 135 -1 270 -2 301 -3z m-3296 -1245 c118 -76 288 -156 410 -195 152
-48 155 -48 235 -61 41 -7 79 -15 83 -19 9 -8 12 -634 3 -648 -5 -8 -25 -6
-151 12 -262 39 -590 155 -832 295 -56 32 -235 150 -243 160 -3 4 -24 21 -48
40 l-42 33 235 234 236 235 42 -34 c23 -18 56 -42 72 -52z m2485 -383 c0 -13
-100 -90 -225 -172 -278 -182 -642 -317 -983 -364 -51 -7 -95 -9 -98 -5 -3 5
-5 127 -5 271 0 379 0 388 9 386 14 -3 118 15 192 34 197 50 421 152 574 261
l79 56 229 -229 c125 -126 228 -233 228 -238z"/>
</g>
</svg>
